<svg width="33" height="33" viewBox="0 0 33 33" fill="none" xmlns="http://www.w3.org/2000/svg">
<path d="M0 3.09375C0 2.82025 0.108649 2.55794 0.302046 2.36455C0.495443 2.17115 0.757745 2.0625 1.03125 2.0625H4.125C4.35503 2.06256 4.57844 2.13954 4.7597 2.28118C4.94095 2.42282 5.06964 2.62099 5.12531 2.84419L5.96063 6.1875H29.9062C30.0577 6.18764 30.2072 6.22112 30.3442 6.28557C30.4812 6.35002 30.6024 6.44386 30.6991 6.56041C30.7957 6.67696 30.8655 6.81337 30.9035 6.95994C30.9415 7.10652 30.9468 7.25966 30.9189 7.4085L27.8252 23.9085C27.781 24.1448 27.6555 24.3582 27.4706 24.5119C27.2857 24.6656 27.0529 24.7498 26.8125 24.75H8.25C8.00958 24.7498 7.77679 24.6656 7.59188 24.5119C7.40697 24.3582 7.28155 24.1448 7.23731 23.9085L4.14562 7.43944L3.32063 4.125H1.03125C0.757745 4.125 0.495443 4.01635 0.302046 3.82295C0.108649 3.62956 0 3.36725 0 3.09375ZM10.3125 24.75C9.21848 24.75 8.16927 25.1846 7.39568 25.9582C6.6221 26.7318 6.1875 27.781 6.1875 28.875C6.1875 29.969 6.6221 31.0182 7.39568 31.7918C8.16927 32.5654 9.21848 33 10.3125 33C11.4065 33 12.4557 32.5654 13.2293 31.7918C14.0029 31.0182 14.4375 29.969 14.4375 28.875C14.4375 27.781 14.0029 26.7318 13.2293 25.9582C12.4557 25.1846 11.4065 24.75 10.3125 24.75ZM24.75 24.75C23.656 24.75 22.6068 25.1846 21.8332 25.9582C21.0596 26.7318 20.625 27.781 20.625 28.875C20.625 29.969 21.0596 31.0182 21.8332 31.7918C22.6068 32.5654 23.656 33 24.75 33C25.844 33 26.8932 32.5654 27.6668 31.7918C28.4404 31.0182 28.875 29.969 28.875 28.875C28.875 27.781 28.4404 26.7318 27.6668 25.9582C26.8932 25.1846 25.844 24.75 24.75 24.75ZM10.3125 26.8125C10.8595 26.8125 11.3841 27.0298 11.7709 27.4166C12.1577 27.8034 12.375 28.328 12.375 28.875C12.375 29.422 12.1577 29.9466 11.7709 30.3334C11.3841 30.7202 10.8595 30.9375 10.3125 30.9375C9.76549 30.9375 9.24089 30.7202 8.85409 30.3334C8.4673 29.9466 8.25 29.422 8.25 28.875C8.25 28.328 8.4673 27.8034 8.85409 27.4166C9.24089 27.0298 9.76549 26.8125 10.3125 26.8125ZM24.75 26.8125C25.297 26.8125 25.8216 27.0298 26.2084 27.4166C26.5952 27.8034 26.8125 28.328 26.8125 28.875C26.8125 29.422 26.5952 29.9466 26.2084 30.3334C25.8216 30.7202 25.297 30.9375 24.75 30.9375C24.203 30.9375 23.6784 30.7202 23.2916 30.3334C22.9048 29.9466 22.6875 29.422 22.6875 28.875C22.6875 28.328 22.9048 27.8034 23.2916 27.4166C23.6784 27.0298 24.203 26.8125 24.75 26.8125V26.8125Z" fill="#F8F8F8"/>
</svg>
